# xmcd CD database file
#
# Track frame offsets:
#	150
#	15187
#	38362
#	51704
#	66404
#	88014
#	101719
#	115866
#	133971
#	150266
#	165341
#	178641
#	193606
#	213726
#	230113
#	244270
#
# Disc length: 3623 seconds
#
# Revision: 0
# Processed by: cddbd v1.5.2PL0 Copyright (c) Steve Scherf et al.
# Submitted via: CDex 1.70beta2
#
DISCID=db0e2510
DTITLE=Eric Clapton - From the Cradle
DYEAR=2002
DGENRE=Blues
TTITLE0=Reconsider Baby
TTITLE1=Third Degree
TTITLE2=Blues Before Sunrise
TTITLE3=Hoochie Coochie Man
TTITLE4=Five Long Years
TTITLE5=I'm Tore Down
TTITLE6=How Long Blues
TTITLE7=Goin' Away Baby
TTITLE8=Blues Leave Me Alone
TTITLE9=Sinner's Prayer
TTITLE10=Motherless Child
TTITLE11=It Hurts Me Too
TTITLE12=Someday After a While
TTITLE13=Standin'Round Crying
TTITLE14=Driftin'
TTITLE15=Groaning the Blues
EXTD=YEAR: 2002
EXTT0=
EXTT1=
EXTT2=
EXTT3=
EXTT4=
EXTT5=
EXTT6=
EXTT7=
EXTT8=
EXTT9=
EXTT10=
EXTT11=
EXTT12=
EXTT13=
EXTT14=
EXTT15=
PLAYORDER=
